<svg viewBox="0 0 3377 1597" height="1597" width="3377" xmlns:xlink="http://www.w3.org/1999/xlink"
     xmlns="http://www.w3.org/2000/svg" xmlns:ev="http://www.w3.org/2001/xml-events">
    <defs/>
    <g transform="translate(5.5,5.5)" id="page1">
        <rect y="0" fill="none" x="0" height="1587" width="3368"/>
        <g transform="translate(1426.520000,128.000000)" id="shape1">
            <path fill="#ffffff"
                  d="M.0,.0L488.0,.0L488.0,193.0L.0,193.0L.0,.0zM.0,39.0L488.0,39.0L.0,39.0zM.0,154.0L488.0,154.0L.0,154.0z"
                  fill-rule="nonzero"/>
            <path d="M.0,.0L488.0,.0L488.0,193.0L.0,193.0L.0,.0zM.0,39.0L488.0,39.0L.0,39.0zM.0,154.0L488.0,154.0L.0,154.0z"
                  fill="none" stroke-width="1" stroke="#101843"/>
            <text xml:space="preserve" style="fill:#191919;font-family:微软雅黑;font-size:10.00pt"><tspan y="25.0" x="195.5">CellTextContext</tspan></text>
            <text xml:space="preserve" style="fill:#191919;font-family:微软雅黑;font-size:10.00pt"><tspan y="64.0" x="4.0">+ color:tuple[int,int,int]</tspan>
                <tspan y="83.0" x="4.0">+ bold:bool</tspan>
                <tspan y="102.0" x="4.0">+ italic:bool</tspan>
                <tspan y="121.0" x="4.0">+ underline:bool</tspan>
                <tspan y="140.0" x="4.0">+ text:str</tspan></text>
            <text xml:space="preserve" style="fill:#191919;font-family:微软雅黑;font-size:10.00pt"><tspan y="179.0" x="4.0">+ __init__(self,color:tuple[int,int,int],bold:bool,italic:bool,underline:bool,text:str)</tspan></text>
        </g>
        <g transform="translate(1541.520000,352.000000)" id="shape2">
            <path fill="#ffffff"
                  d="M.0,.0L276.0,.0L276.0,139.0L.0,139.0L.0,.0zM.0,40.0L276.0,40.0L.0,40.0zM.0,79.0L276.0,79.0L.0,79.0z"
                  fill-rule="nonzero"/>
            <path d="M.0,.0L276.0,.0L276.0,139.0L.0,139.0L.0,.0zM.0,40.0L276.0,40.0L.0,40.0zM.0,79.0L276.0,79.0L.0,79.0z"
                  fill="none" stroke-width="1" stroke="#101843"/>
            <text xml:space="preserve"
                  style="fill:#191919;font-family:Microsoft YaHei;font-size:10.00pt;font-style:italic"><tspan y="26.0" x="83.0">AbstractExpression</tspan></text>
            <text xml:space="preserve"
                  style="fill:#191919;font-family:Microsoft YaHei;font-size:10.00pt;font-style:italic"><tspan y="115.0" x="4.0">+ interpret(self,context:CellTextContext):Any</tspan></text>
        </g>
        <g transform="translate(2444.520000,566.500000)" id="shape3">
            <path fill="#ffffff"
                  d="M.0,.0L265.0,.0L265.0,139.0L.0,139.0L.0,.0zM.0,40.0L265.0,40.0L.0,40.0zM.0,79.0L265.0,79.0L.0,79.0z"
                  fill-rule="nonzero"/>
            <path d="M.0,.0L265.0,.0L265.0,139.0L.0,139.0L.0,.0zM.0,40.0L265.0,40.0L.0,40.0zM.0,79.0L265.0,79.0L.0,79.0z"
                  fill="none" stroke-width="1" stroke="#101843"/>
            <text xml:space="preserve"
                  style="fill:#191919;font-family:Microsoft YaHei;font-size:10.00pt;font-style:italic"><tspan y="26.0" x="85.5">EntityExpression</tspan></text>
            <text xml:space="preserve"
                  style="fill:#191919;font-family:Microsoft YaHei;font-size:10.00pt;font-style:italic"><tspan y="115.0" x="4.0">+ interpret(self,context:CellTextContext):str</tspan></text>
        </g>
        <g transform="translate(2577.777000,566.500000)" id="shape4">
            <path d="M.0,.0L.0,-46.5L-897.5,-46.5L-897.5,-65.1" fill="none" stroke-width="1" stroke="#191919"/>
            <path stroke-linecap="round" fill="none" d="M-897.5,-75.5L-903.5,-65.1L-891.5,-65.1L-897.5,-75.5"
                  stroke-width="1" stroke-linejoin="round" stroke="#191919"/>
        </g>
        <g transform="translate(1178.020000,566.500000)" id="shape5">
            <path fill="#ffffff"
                  d="M.0,.0L308.0,.0L308.0,139.0L.0,139.0L.0,.0zM.0,40.0L308.0,40.0L.0,40.0zM.0,79.0L308.0,79.0L.0,79.0z"
                  fill-rule="nonzero"/>
            <path d="M.0,.0L308.0,.0L308.0,139.0L.0,139.0L.0,.0zM.0,40.0L308.0,40.0L.0,40.0zM.0,79.0L308.0,79.0L.0,79.0z"
                  fill="none" stroke-width="1" stroke="#101843"/>
            <text xml:space="preserve"
                  style="fill:#191919;font-family:Microsoft YaHei;font-size:10.00pt;font-style:italic"><tspan y="26.0" x="91.0">CommandExpression</tspan></text>
            <text xml:space="preserve"
                  style="fill:#191919;font-family:Microsoft YaHei;font-size:10.00pt;font-style:italic"><tspan y="115.0" x="4.0">+ interpret(self,context:CellTextContext):list[str,...]</tspan></text>
        </g>
        <g transform="translate(1332.899956,566.500000)" id="shape6">
            <path d="M.0,.0L.0,-46.5L347.4,-46.5L347.4,-65.1" fill="none" stroke-width="1" stroke="#191919"/>
            <path stroke-linecap="round" fill="none" d="M347.4,-75.5L341.4,-65.1L353.4,-65.1L347.4,-75.5"
                  stroke-width="1" stroke-linejoin="round" stroke="#191919"/>
        </g>
        <g transform="translate(852.770000,813.000000)" id="shape7">
            <path fill="#ffffff"
                  d="M.0,.0L298.0,.0L298.0,117.0L.0,117.0L.0,.0zM.0,39.0L298.0,39.0L.0,39.0zM.0,78.0L298.0,78.0L.0,78.0z"
                  fill-rule="nonzero"/>
            <path d="M.0,.0L298.0,.0L298.0,117.0L.0,117.0L.0,.0zM.0,39.0L298.0,39.0L.0,39.0zM.0,78.0L298.0,78.0L.0,78.0z"
                  fill="none" stroke-width="1" stroke="#101843"/>
            <text xml:space="preserve" style="fill:#191919;font-family:微软雅黑;font-size:10.00pt"><tspan y="25.0" x="103.0">BoldExpression</tspan></text>
            <text xml:space="preserve" style="fill:#191919;font-family:微软雅黑;font-size:10.00pt"><tspan y="64.0" x="4.0" style="text-decoration:underline">+ default:str</tspan></text>
            <text xml:space="preserve" style="fill:#191919;font-family:微软雅黑;font-size:10.00pt"><tspan y="103.0" x="4.0">+ interpret(self,context:CellTextContext):list[str]</tspan></text>
        </g>
        <g transform="translate(1183.020000,813.000000)" id="shape8">
            <path fill="#ffffff"
                  d="M.0,.0L298.0,.0L298.0,117.0L.0,117.0L.0,.0zM.0,39.0L298.0,39.0L.0,39.0zM.0,78.0L298.0,78.0L.0,78.0z"
                  fill-rule="nonzero"/>
            <path d="M.0,.0L298.0,.0L298.0,117.0L.0,117.0L.0,.0zM.0,39.0L298.0,39.0L.0,39.0zM.0,78.0L298.0,78.0L.0,78.0z"
                  fill="none" stroke-width="1" stroke="#101843"/>
            <text xml:space="preserve" style="fill:#191919;font-family:微软雅黑;font-size:10.00pt"><tspan y="25.0" x="102.0">ItalicExpression</tspan></text>
            <text xml:space="preserve" style="fill:#191919;font-family:微软雅黑;font-size:10.00pt"><tspan y="64.0" x="4.0" style="text-decoration:underline">+ default:str</tspan></text>
            <text xml:space="preserve" style="fill:#191919;font-family:微软雅黑;font-size:10.00pt"><tspan y="103.0" x="4.0">+ interpret(self,context:CellTextContext):list[str]</tspan></text>
        </g>
        <g transform="translate(1510.520000,813.000000)" id="shape9">
            <path fill="#ffffff"
                  d="M.0,.0L298.0,.0L298.0,117.0L.0,117.0L.0,.0zM.0,39.0L298.0,39.0L.0,39.0zM.0,78.0L298.0,78.0L.0,78.0z"
                  fill-rule="nonzero"/>
            <path d="M.0,.0L298.0,.0L298.0,117.0L.0,117.0L.0,.0zM.0,39.0L298.0,39.0L.0,39.0zM.0,78.0L298.0,78.0L.0,78.0z"
                  fill="none" stroke-width="1" stroke="#101843"/>
            <text xml:space="preserve" style="fill:#191919;font-family:微软雅黑;font-size:10.00pt"><tspan y="25.0" x="87.0">UnderlineExpression</tspan></text>
            <text xml:space="preserve" style="fill:#191919;font-family:微软雅黑;font-size:10.00pt"><tspan y="64.0" x="4.0" style="text-decoration:underline">+ default:str</tspan></text>
            <text xml:space="preserve" style="fill:#191919;font-family:微软雅黑;font-size:10.00pt"><tspan y="103.0" x="4.0">+ interpret(self,context:CellTextContext):list[str]</tspan></text>
        </g>
        <g transform="translate(1853.520000,813.000000)" id="shape10">
            <path fill="#ffffff"
                  d="M.0,.0L298.0,.0L298.0,136.0L.0,136.0L.0,.0zM.0,39.0L298.0,39.0L.0,39.0zM.0,97.0L298.0,97.0L.0,97.0z"
                  fill-rule="nonzero"/>
            <path d="M.0,.0L298.0,.0L298.0,136.0L.0,136.0L.0,.0zM.0,39.0L298.0,39.0L.0,39.0zM.0,97.0L298.0,97.0L.0,97.0z"
                  fill="none" stroke-width="1" stroke="#101843"/>
            <text xml:space="preserve" style="fill:#191919;font-family:微软雅黑;font-size:10.00pt"><tspan y="25.0" x="100.0">ColorExpression</tspan></text>
            <text xml:space="preserve" style="fill:#191919;font-family:微软雅黑;font-size:10.00pt"><tspan y="64.0" x="4.0" style="text-decoration:underline">+ default:tuple[int,int,int]</tspan>
                <tspan y="83.0" x="4.0" style="text-decoration:underline">+ pattern:str</tspan></text>
            <text xml:space="preserve" style="fill:#191919;font-family:微软雅黑;font-size:10.00pt"><tspan y="122.0" x="4.0">+ interpret(self,context:CellTextContext):list[str]</tspan></text>
        </g>
        <g transform="translate(2003.371386,813.000000)" id="shape11">
            <path d="M.0,.0L.0,-80.0L-670.5,-80.0L-670.5,-97.6" fill="none" stroke-width="1" stroke="#191919"/>
            <path stroke-linecap="round" fill="none" d="M-670.5,-108.0L-676.5,-97.6L-664.5,-97.6L-670.5,-108.0"
                  stroke-width="1" stroke-linejoin="round" stroke="#191919"/>
        </g>
        <g transform="translate(2196.520000,813.000000)" id="shape12">
            <path fill="#ffffff"
                  d="M.0,.0L289.0,.0L289.0,117.0L.0,117.0L.0,.0zM.0,39.0L289.0,39.0L.0,39.0zM.0,78.0L289.0,78.0L.0,78.0z"
                  fill-rule="nonzero"/>
            <path d="M.0,.0L289.0,.0L289.0,117.0L.0,117.0L.0,.0zM.0,39.0L289.0,39.0L.0,39.0zM.0,78.0L289.0,78.0L.0,78.0z"
                  fill="none" stroke-width="1" stroke="#101843"/>
            <text xml:space="preserve" style="fill:#191919;font-family:微软雅黑;font-size:10.00pt"><tspan y="25.0" x="99.0">TextExpression</tspan></text>
            <text xml:space="preserve" style="fill:#191919;font-family:微软雅黑;font-size:10.00pt"><tspan y="64.0" x="4.0" style="text-decoration:underline">+ table:dict[int,str]</tspan></text>
            <text xml:space="preserve" style="fill:#191919;font-family:微软雅黑;font-size:10.00pt"><tspan y="103.0" x="4.0">+ interpret(self,context:CellTextContext):str</tspan></text>
        </g>
        <g transform="translate(2341.845673,813.000000)" id="shape13">
            <path d="M.0,.0L.0,-80.0L235.9,-80.0L235.9,-97.6" fill="none" stroke-width="1" stroke="#191919"/>
            <path stroke-linecap="round" fill="none" d="M235.9,-108.0L229.9,-97.6L241.9,-97.6L235.9,-108.0"
                  stroke-width="1" stroke-linejoin="round" stroke="#191919"/>
        </g>
        <g transform="translate(517.520000,813.000000)" id="shape14">
            <path fill="#ffffff"
                  d="M.0,.0L303.0,.0L303.0,136.0L.0,136.0L.0,.0zM.0,39.0L303.0,39.0L.0,39.0zM.0,78.0L303.0,78.0L.0,78.0z"
                  fill-rule="nonzero"/>
            <path d="M.0,.0L303.0,.0L303.0,136.0L.0,136.0L.0,.0zM.0,39.0L303.0,39.0L.0,39.0zM.0,78.0L303.0,78.0L.0,78.0z"
                  fill="none" stroke-width="1" stroke="#101843"/>
            <text xml:space="preserve" style="fill:#191919;font-family:微软雅黑;font-size:10.00pt"><tspan y="25.0" x="80.0">ConcatenateExpression</tspan></text>
            <text xml:space="preserve" style="fill:#191919;font-family:微软雅黑;font-size:10.00pt"><tspan y="64.0" x="4.0">+ expressions:list[CommandExpression,...]</tspan></text>
            <text xml:space="preserve" style="fill:#191919;font-family:微软雅黑;font-size:10.00pt"><tspan y="103.0" x="4.0">+ __init__(*args:CommandExpression)</tspan>
                <tspan y="122.0" x="4.0">+ interpret(self,context:CellTextContext):list[str]</tspan></text>
        </g>
        <g transform="translate(2539.520000,813.000000)" id="shape15">
            <path fill="#ffffff"
                  d="M.0,.0L578.0,.0L578.0,155.0L.0,155.0L.0,.0zM.0,39.0L578.0,39.0L.0,39.0zM.0,97.0L578.0,97.0L.0,97.0z"
                  fill-rule="nonzero"/>
            <path d="M.0,.0L578.0,.0L578.0,155.0L.0,155.0L.0,.0zM.0,39.0L578.0,39.0L.0,39.0zM.0,97.0L578.0,97.0L.0,97.0z"
                  fill="none" stroke-width="1" stroke="#101843"/>
            <text xml:space="preserve" style="fill:#191919;font-family:微软雅黑;font-size:10.00pt"><tspan y="25.0" x="206.5">SingleParameterExpression</tspan></text>
            <text xml:space="preserve" style="fill:#191919;font-family:微软雅黑;font-size:10.00pt"><tspan y="64.0" x="4.0">+ command_expression:CommandExpression</tspan>
                <tspan y="83.0" x="4.0">+ entity_expression:EntityExpression</tspan></text>
            <text xml:space="preserve" style="fill:#191919;font-family:微软雅黑;font-size:10.00pt"><tspan y="122.0" x="4.0">+ __init__(self,command_expression:CommandExpression,entity_expression:EntityExpression)</tspan>
                <tspan y="141.0" x="4.0">+ interpret(context:CellTextContext):str</tspan></text>
        </g>
        <g transform="translate(2830.171000,813.000000)" id="shape16">
            <path d="M.0,.0L.0,-80.0L-252.4,-80.0L-252.4,-97.1" fill="none" stroke-width="1" stroke="#191919"/>
            <path stroke-linecap="round" fill="none" d="M-252.4,-107.5L-258.4,-97.1L-246.4,-97.1L-252.4,-107.5"
                  stroke-width="1" stroke-linejoin="round" stroke="#191919"/>
        </g>
        <g transform="translate(669.886000,813.000000)" id="shape17">
            <path d="M.0,.0L.0,-80.0L663.0,-80.0L663.0,-97.6" fill="none" stroke-width="1" stroke="#191919"/>
            <path stroke-linecap="round" fill="none" d="M663.0,-108.0L657.0,-97.6L669.0,-97.6L663.0,-108.0"
                  stroke-width="1" stroke-linejoin="round" stroke="#191919"/>
        </g>
        <g transform="translate(1002.621386,813.000000)" id="shape18">
            <path d="M.0,.0L.0,-80.0L330.3,-80.0L330.3,-97.6" fill="none" stroke-width="1" stroke="#191919"/>
            <path stroke-linecap="round" fill="none" d="M330.3,-108.0L324.3,-97.6L336.3,-97.6L330.3,-108.0"
                  stroke-width="1" stroke-linejoin="round" stroke="#191919"/>
        </g>
        <g transform="translate(1332.871386,813.000000)" id="shape19">
            <path d="M.0,.0L.0,-28.0L.0,-97.6" fill="none" stroke-width="1" stroke="#191919"/>
            <path stroke-linecap="round" fill="none" d="M.0,-108.0L-6.0,-97.6L6.0,-97.6L.0,-108.0" stroke-width="1"
                  stroke-linejoin="round" stroke="#191919"/>
        </g>
        <g transform="translate(1660.371386,813.000000)" id="shape20">
            <path d="M.0,.0L.0,-80.0L-327.5,-80.0L-327.5,-97.6" fill="none" stroke-width="1" stroke="#191919"/>
            <path stroke-linecap="round" fill="none" d="M-327.5,-108.0L-333.5,-97.6L-321.5,-97.6L-327.5,-108.0"
                  stroke-width="1" stroke-linejoin="round" stroke="#191919"/>
        </g>
    </g>
</svg>